<?xml version="1.0" standalone="no"?>
<!DOCTYPE svg PUBLIC "-//W3C//DTD SVG 20010904//EN"
 "http://www.w3.org/TR/2001/REC-SVG-20010904/DTD/svg10.dtd">
<svg version="1.0" xmlns="http://www.w3.org/2000/svg"
 width="128.000000pt" height="128.000000pt" viewBox="0 0 128.000000 128.000000"
 preserveAspectRatio="xMidYMid meet">

<g transform="translate(0.000000,128.000000) scale(0.100000,-0.100000)"
fill="#000000" stroke="none">
<path d="M321 1041 c-168 -131 -310 -245 -315 -254 -9 -13 -1 -26 39 -67 49
-50 62 -55 105 -36 13 5 15 -26 13 -251 l-2 -258 -28 -3 c-39 -4 -53 -27 -53
-85 0 -95 -53 -87 560 -87 613 0 560 -8 560 87 0 58 -14 81 -54 85 l-30 3 3
65 c1 46 -2 71 -13 85 -16 20 -16 20 -31 1 -10 -13 -15 -43 -15 -88 l0 -68
-420 0 -420 0 2 287 3 287 204 158 c112 87 207 158 211 158 4 0 99 -71 211
-158 l204 -158 2 -105 c4 -129 8 -149 33 -149 24 0 33 42 28 134 -2 56 -1 65
12 60 44 -18 52 -16 101 32 27 26 49 54 49 61 0 7 -36 41 -80 75 l-80 63 0
115 c0 63 -4 121 -9 128 -5 9 -31 12 -92 10 l-84 -3 -3 -47 c-2 -27 -5 -48 -8
-48 -3 0 -66 47 -140 105 -73 58 -139 105 -146 104 -7 0 -150 -108 -317 -238z
m333 161 c2 -4 -4 -8 -14 -8 -10 0 -16 4 -14 8 7 10 21 10 28 0z m-94 -56 c0
-2 -8 -10 -17 -17 -16 -13 -17 -12 -4 4 13 16 21 21 21 13z m181 -13 c13 -16
12 -17 -3 -4 -10 7 -18 15 -18 17 0 8 8 3 21 -13z m-221 -17 c0 -2 -8 -10 -17
-17 -16 -13 -17 -12 -4 4 13 16 21 21 21 13z m261 -13 c13 -16 12 -17 -3 -4
-10 7 -18 15 -18 17 0 8 8 3 21 -13z m287 -60 c2 -40 0 -73 -5 -73 -4 0 -24
12 -45 26 -35 25 -38 30 -38 76 l0 49 43 -3 42 -3 3 -72z m-488 53 c0 -2 -8
-10 -17 -17 -16 -13 -17 -12 -4 4 13 16 21 21 21 13z m141 -13 c13 -16 12 -17
-3 -4 -10 7 -18 15 -18 17 0 8 8 3 21 -13z m-251 -7 c0 -2 -8 -10 -17 -17 -16
-13 -17 -12 -4 4 13 16 21 21 21 13z m361 -13 c13 -16 12 -17 -3 -4 -10 7 -18
15 -18 17 0 8 8 3 21 -13z m-291 3 c0 -2 -8 -10 -17 -17 -16 -13 -17 -12 -4 4
13 16 21 21 21 13z m221 -13 c13 -16 12 -17 -3 -4 -10 7 -18 15 -18 17 0 8 8
3 21 -13z m-331 -7 c0 -2 -8 -10 -17 -17 -16 -13 -17 -12 -4 4 13 16 21 21 21
13z m441 -13 c13 -16 12 -17 -3 -4 -10 7 -18 15 -18 17 0 8 8 3 21 -13z m-491
-27 c0 -2 -8 -10 -17 -17 -16 -13 -17 -12 -4 4 13 16 21 21 21 13z m541 -13
c13 -16 12 -17 -3 -4 -10 7 -18 15 -18 17 0 8 8 3 21 -13z m-471 3 c0 -2 -8
-10 -17 -17 -16 -13 -17 -12 -4 4 13 16 21 21 21 13z m401 -13 c13 -16 12 -17
-3 -4 -10 7 -18 15 -18 17 0 8 8 3 21 -13z m-511 -7 c0 -2 -8 -10 -17 -17 -16
-13 -17 -12 -4 4 13 16 21 21 21 13z m621 -13 c13 -16 12 -17 -3 -4 -10 7 -18
15 -18 17 0 8 8 3 21 -13z m-551 3 c0 -2 -8 -10 -17 -17 -16 -13 -17 -12 -4 4
13 16 21 21 21 13z m481 -13 c13 -16 12 -17 -3 -4 -10 7 -18 15 -18 17 0 8 8
3 21 -13z m-531 -27 c0 -2 -8 -10 -17 -17 -16 -13 -17 -12 -4 4 13 16 21 21
21 13z m581 -13 c13 -16 12 -17 -3 -4 -10 7 -18 15 -18 17 0 8 8 3 21 -13z
m-691 -7 c0 -2 -8 -10 -17 -17 -16 -13 -17 -12 -4 4 13 16 21 21 21 13z m801
-13 c13 -16 12 -17 -3 -4 -10 7 -18 15 -18 17 0 8 8 3 21 -13z m-731 3 c0 -2
-8 -10 -17 -17 -16 -13 -17 -12 -4 4 13 16 21 21 21 13z m661 -13 c13 -16 12
-17 -3 -4 -10 7 -18 15 -18 17 0 8 8 3 21 -13z m-771 -7 c0 -2 -8 -10 -17 -17
-16 -13 -17 -12 -4 4 13 16 21 21 21 13z m881 -13 c13 -16 12 -17 -3 -4 -10 7
-18 15 -18 17 0 8 8 3 21 -13z m-821 -7 c0 -2 -8 -10 -17 -17 -16 -13 -17 -12
-4 4 13 16 21 21 21 13z m761 -13 c13 -16 12 -17 -3 -4 -10 7 -18 15 -18 17 0
8 8 3 21 -13z m-871 -7 c0 -2 -8 -10 -17 -17 -16 -13 -17 -12 -4 4 13 16 21
21 21 13z m981 -13 c13 -16 12 -17 -3 -4 -10 7 -18 15 -18 17 0 8 8 3 21 -13z
m-911 3 c0 -2 -8 -10 -17 -17 -16 -13 -17 -12 -4 4 13 16 21 21 21 13z m841
-13 c13 -16 12 -17 -3 -4 -10 7 -18 15 -18 17 0 8 8 3 21 -13z m-951 -6 c0 -2
-10 -12 -22 -23 l-23 -19 19 23 c18 21 26 27 26 19z m1065 -17 c10 -11 16 -20
13 -20 -3 0 -13 9 -23 20 -10 11 -16 20 -13 20 3 0 13 -9 23 -20z m-45 -705
l0 -35 -500 0 -500 0 0 35 0 35 500 0 500 0 0 -35z"/>
<path d="M565 790 c-107 -19 -207 -70 -265 -136 -35 -41 -37 -62 -9 -98 29
-37 75 -35 125 5 87 69 183 96 281 78 66 -12 111 -34 167 -78 50 -40 96 -42
125 -5 28 36 26 57 -9 98 -88 100 -273 160 -415 136z m248 -83 c75 -34 137
-83 137 -108 0 -29 -27 -23 -73 16 -63 54 -137 79 -237 79 -100 0 -174 -25
-237 -79 -46 -39 -73 -45 -73 -16 0 21 53 67 110 96 70 36 113 45 215 42 84
-2 109 -7 158 -30z"/>
<path d="M525 556 c-54 -25 -105 -76 -105 -105 0 -10 9 -30 21 -45 27 -34 73
-35 119 -1 25 18 47 25 80 25 33 0 55 -7 80 -25 46 -34 92 -33 119 1 28 35 26
56 -6 95 -65 77 -207 103 -308 55z m234 -59 c25 -17 41 -35 41 -47 0 -27 -13
-25 -67 7 -33 19 -60 27 -93 27 -33 0 -60 -8 -93 -27 -25 -15 -50 -27 -56 -27
-22 0 -10 39 18 59 48 34 73 41 142 38 53 -2 75 -8 108 -30z"/>
<path d="M1077 434 c-16 -16 -7 -44 14 -44 15 0 20 5 17 22 -3 22 -19 33 -31
22z"/>
<path d="M596 359 c-50 -39 -23 -129 38 -129 39 0 57 11 71 43 16 39 3 80 -31
96 -35 16 -47 14 -78 -10z m61 -45 c8 -21 -13 -42 -28 -27 -13 13 -5 43 11 43
6 0 13 -7 17 -16z"/>
</g>
</svg>
